:version 1.10
:name ASF
:units
  mass 1
  length 1
  angle deg
:documentation
  ASF file generated by Kaydara
:root
  axis xyz
  order  tx ty tz rx ry rz
  position 0 0 0
  orientation 0 0 0
:bonedata
  begin
    id 1
    name RightUpLegDummy
    direction -0.718183 -0.695806 0.00816078
    length 4.904
    axis 0 0 0 xyz
  end
  begin
    id 2
    name RightUpLeg
    direction 3.53989e-006 -0.995788 0.0916897
    length 17.4976
    axis -3.49089 -0.000906621 0.000287158 xyz
    dof rx ry rz
  end
  begin
    id 3
    name RightLeg
    direction 0.00371093 -0.995096 -0.0988418
    length 16.5821
    axis 3.68512 0.0193738 -0.131023 xyz
    dof rx ry rz
  end
  begin
    id 4
    name RightFoot
    direction 0.000791514 -0.46099 0.887405
    length 3.77069
    axis 4.84075e-005 -0.120479 -0.188788 xyz
    dof rx ry rz
  end
  begin
    id 5
    name RightToes
    direction 0.00124746 -0.014064 0.9999
    length 3.85082
    axis 0.00048216 0.542163 -0.142577 xyz
    dof rx ry rz
  end
  begin
    id 6
    name SpineDummy
    direction 8.3039e-015 1 4.57515e-016
    length 4.6813
    axis 0 0 0 xyz
  end
  begin
    id 7
    name Spine
    direction -4.63632e-008 0.999988 0.00495137
    length 10.1015
    axis -0.00138897 0.000121419 3.25764e-006 xyz
    dof rx ry rz
  end
  begin
    id 8
    name Spine1
    direction 0 0 0
    length 0
    axis -0.00138896 0.000121452 2.39764e-006 xyz
    dof rx ry rz
  end
  begin
    id 9
    name HEadDummy
    direction -3.91456e-008 0.999999 0.00127422
    length 3.43865
    axis -0.00138896 0.000121452 2.39764e-006 xyz
  end
  begin
    id 10
    name HEad
    direction -0.0222688 0.980941 0.193023
    length 5.12695
    axis -0.00138895 0.000121452 2.39764e-006 xyz
    dof rx ry rz
  end
  begin
    id 11
    name LeftShoulder1Dummy
    direction 0.998891 -0.0402508 -0.0244456
    length 3.5433
    axis -0.00138896 0.000121452 2.39764e-006 xyz
  end
  begin
    id 12
    name LeftShoulder1
    direction 0.99951 -0.000327743 0.0313091
    length 4.05031
    axis -0.00138896 0.000121452 2.39764e-006 xyz
    dof rx ry rz
  end
  begin
    id 13
    name LeftArm
    direction 0.998561 -0.00100054 -0.0536182
    length 10.3537
    axis -23.1894 0.134784 0.96751 xyz
    dof rx ry rz
  end
  begin
    id 14
    name LeftForeArm
    direction 0.998903 0.00866434 0.046012
    length 8.70632
    axis -9.91835 -0.06569 -0.177792 xyz
    dof rx ry rz
  end
  begin
    id 15
    name LeftHand
    direction 0.992938 -0.0411636 0.11126
    length 5.32135
    axis -0.00960227 -0.00340091 0.185174 xyz
    dof rx ry rz
  end
  begin
    id 16
    name RightShoulderDummy
    direction -0.998891 -0.0402509 -0.0244414
    length 3.5433
    axis -0.00138896 0.000121452 2.39764e-006 xyz
  end
  begin
    id 17
    name RightShoulder
    direction -0.99951 -0.000327827 0.0313133
    length 4.05031
    axis 0.215806 0.000203644 -0.00680151 xyz
    dof rx ry rz
  end
  begin
    id 18
    name RightArm
    direction -0.998573 -0.000999583 -0.053403
    length 10.3947
    axis -23.2009 -0.134239 -0.9641 xyz
    dof rx ry rz
  end
  begin
    id 19
    name RightForeArm
    direction -0.998898 0.00868026 0.0461306
    length 8.68355
    axis -9.92322 0.0658061 0.178869 xyz
    dof rx ry rz
  end
  begin
    id 20
    name RightHand
    direction -0.992843 -0.0414603 0.112003
    length 5.28593
    axis -0.00960634 0.00330671 -0.185226 xyz
    dof rx ry rz
  end
  begin
    id 21
    name LeftUpLegDummy
    direction 0.718183 -0.695806 0.00816078
    length 4.904
    axis 0 0 0 xyz
  end
  begin
    id 22
    name LeftUpLeg
    direction -6.8115e-006 -0.995793 0.0916336
    length 17.4976
    axis -3.48766 0.00143441 -0.000523914 xyz
    dof rx ry rz
  end
  begin
    id 23
    name LeftLeg
    direction -0.00601357 -0.995091 -0.0987824
    length 16.5821
    axis 3.68177 -0.00654038 -0.00028478 xyz
    dof rx ry rz
  end
  begin
    id 24
    name LeftFoot
    direction -0.00417578 -0.460984 0.887399
    length 3.77069
    axis 1.87232e-006 4.66002e-005 -8.1837e-006 xyz
    dof rx ry rz
  end
  begin
    id 25
    name LeftToes
    direction 0.00818058 -0.00485161 0.999955
    length 3.85048
    axis 1.06246e-005 4.65855e-005 -8.18502e-006 xyz
    dof rx ry rz
  end
:hierarchy
  begin
    root RightUpLegDummy SpineDummy LeftUpLegDummy
    RightUpLegDummy RightUpLeg
    RightUpLeg RightLeg
    RightLeg RightFoot
    RightFoot RightToes
    SpineDummy Spine
    Spine Spine1
    Spine1 HEadDummy LeftShoulder1Dummy RightShoulderDummy
    HEadDummy HEad
    LeftShoulder1Dummy LeftShoulder1
    LeftShoulder1 LeftArm
    LeftArm LeftForeArm
    LeftForeArm LeftHand
    RightShoulderDummy RightShoulder
    RightShoulder RightArm
    RightArm RightForeArm
    RightForeArm RightHand
    LeftUpLegDummy LeftUpLeg
    LeftUpLeg LeftLeg
    LeftLeg LeftFoot
    LeftFoot LeftToes
  end

:SAMPLES-PER-SECOND 30
:FRAME-RANGE 1-663
:FULLY-SPECIFIED
:DEGREES
21
root  -88.6443 38.7709 101.038 13.2016 84.6371 10.234
RightUpLeg  -2.235 -7.22833 -5.83796
RightLeg  12.5666 2.79604 1.75647
RightFoot  -6.87749 -0.357849 7.96647
RightToes  -3.4386e-010 1.2921e-014 -6.02303e-014
Spine  -13.0748 -1.18865 2.87495
Spine1  10.9701 -0.532288 -2.89483
HEad  15.6909 8.74184 1.40771
LeftShoulder1  0.866771 0.30945 -22.8853
LeftArm  -6.98995 8.47631 -50.3221
LeftForeArm  30.2006 5.95794 -11.0892
LeftHand  -0.0210019 4.89805 1.29655
RightShoulder  1.49744 1.24238 26.8984
RightArm  -26.3219 5.17156 54.2207
RightForeArm  69.5159 -5.17558 2.62777
RightHand  0.247438 -7.10943 -17.7181
LeftUpLeg  -0.922444 2.50731 -0.547534
LeftLeg  4.21808 11.9748 1.96943
LeftFoot  -6.11445 0.0529518 -0.354307
LeftToes  -7.12384e-010 -7.51861e-011 -8.34901e-011
22
root  -88.5614 38.7587 100.902 11.813 84.5907 8.47599
RightUpLeg  -2.6673 -6.98672 -5.67965
RightLeg  12.8419 2.38266 1.46245
RightFoot  -6.98863 -0.342256 7.74136
RightToes  -3.4386e-010 1.2921e-014 -6.02303e-014
Spine  -12.8977 -1.2961 2.54705
Spine1  10.994 -0.748678 -2.39618
HEad  14.2835 10.136 1.94825
LeftShoulder1  0.894465 0.199619 -22.7469
LeftArm  -7.00884 9.10232 -50.7395
LeftForeArm  31.0676 6.45735 -11.1462
LeftHand  -0.0172279 4.85827 1.47628
RightShoulder  1.49953 1.26472 26.7791
RightArm  -26.5273 4.75009 53.7885
RightForeArm  69.2407 -5.17425 2.55653
RightHand  0.251405 -7.13027 -17.767
LeftUpLeg  -1.19446 2.4592 -0.617739
LeftLeg  4.27129 12.0403 1.96425
LeftFoot  -6.50356 0.0543662 -0.361104
LeftToes  -7.12384e-010 -7.51861e-011 -8.34901e-011
23
root  -88.4695 38.7399 100.743 11.2241 84.7521 7.58267
RightUpLeg  -2.96828 -7.1515 -5.73506
RightLeg  13.1325 2.1343 1.37787
RightFoot  -7.16366 -0.341744 8.01851
RightToes  -3.4386e-010 1.2921e-014 -6.02303e-014
Spine  -12.4872 -1.42659 2.42631
Spine1  10.8697 -0.882055 -2.41396
HEad  13.05 11.5974 2.00493
LeftShoulder1  0.924707 0.0695272 -22.5111
LeftArm  -7.06095 9.74945 -51.0273
LeftForeArm  31.5899 6.87694 -11.1734
LeftHand  -0.0204806 5.15264 1.40994
RightShoulder  1.47709 1.15114 27.121
RightArm  -26.7409 4.27661 52.997
RightForeArm  68.9332 -5.17462 2.48821
RightHand  0.250092 -7.11748 -17.8052
LeftUpLeg  -1.6116 2.43 -0.753839
LeftLeg  4.69507 11.9287 1.9846
LeftFoot  -6.87849 0.0421237 -0.0193582
LeftToes  -7.12384e-010 -7.51861e-011 -8.34901e-011
24
root  -88.3453 38.6993 100.576 12.6858 84.945 8.77243
RightUpLeg  -3.372 -7.53957 -5.97704
RightLeg  13.8553 2.06381 1.223
RightFoot  -7.6989 -0.330492 8.72747
RightToes  -3.4386e-010 1.2921e-014 -6.02303e-014
Spine  -12.2119 -1.51386 2.0223
Spine1  10.8917 -0.976598 -2.32958
HEad  12.1387 12.8003 2.2821
LeftShoulder1  0.935385 0.0179698 -22.3807
LeftArm  -6.88809 10.1775 -51.189
LeftForeArm  31.8196 7.50809 -11.304
LeftHand  -0.0263102 5.57696 1.50764
RightShoulder  1.45657 1.05791 27.3642
RightArm  -26.9788 3.67146 52.1004
RightForeArm  68.4442 -5.18153 2.4179
RightHand  0.247453 -7.11001 -17.7137
LeftUpLeg  -1.86451 2.42425 -1.04603
LeftLeg  4.97239 11.6914 1.87272
LeftFoot  -7.33951 0.0334257 0.306709
LeftToes  -7.12384e-010 -7.51861e-011 -8.34901e-011
25
root  -88.1996 38.613 100.422 14.9386 85.0661 10.818
RightUpLeg  -4.20257 -5.95807 -5.76652
RightLeg  15.5013 0.303968 -0.0629643
RightFoot  -8.65632 -0.284511 9.60158
RightToes  -3.4386e-010 1.2921e-014 -6.02303e-014
Spine  -11.893 -1.55023 1.3025
Spine1  10.8325 -1.08133 -2.14976
HEad  11.5126 13.7411 2.39368
LeftShoulder1  0.954368 -0.0258885 -22.5878
LeftArm  -6.75494 10.4644 -51.0402
LeftForeArm  32.2997 7.6487 -11.4923
LeftHand  -0.0281282 5.3702 1.26673
RightShoulder  1.47428 1.13281 27.1967
RightArm  -27.6008 2.80122 51.3406
RightForeArm  68.2381 -5.14103 2.13043
RightHand  0.214056 -6.89622 -17.6416
LeftUpLeg  -2.2418 2.44345 -1.45523
LeftLeg  5.80831 11.4134 1.97264
LeftFoot  -8.33788 0.0353771 0.562669
LeftToes  -7.12384e-010 -7.51861e-011 -8.34901e-011
